<?xml version="1.0" encoding="UTF-8" standalone="no"?>
<!-- Created with Inkscape (http://www.inkscape.org/) -->

<svg
   xmlns:dc="http://purl.org/dc/elements/1.1/"
   xmlns:cc="http://creativecommons.org/ns#"
   xmlns:rdf="http://www.w3.org/1999/02/22-rdf-syntax-ns#"
   xmlns:svg="http://www.w3.org/2000/svg"
   xmlns="http://www.w3.org/2000/svg"
   xmlns:sodipodi="http://sodipodi.sourceforge.net/DTD/sodipodi-0.dtd"
   xmlns:inkscape="http://www.inkscape.org/namespaces/inkscape"
   width="70"
   height="70"
   id="svg2"
   version="1.1"
   inkscape:version="0.48.2 r9819"
   sodipodi:docname="default_profile.svg"
   inkscape:export-filename="/Users/ZERO/Computing/Resource/Music Beam/music_beam.png"
   inkscape:export-xdpi="37.150002"
   inkscape:export-ydpi="37.150002">
  <defs
     id="defs4" />
  <sodipodi:namedview
     id="base"
     pagecolor="#ffffff"
     bordercolor="#6666fd"
     borderopacity="1"
     inkscape:pageopacity="1"
     inkscape:pageshadow="2"
     inkscape:zoom="7.9999999"
     inkscape:cx="50.665022"
     inkscape:cy="31.606223"
     inkscape:document-units="px"
     inkscape:current-layer="layer2"
     showgrid="false"
     fit-margin-top="0"
     fit-margin-left="0"
     fit-margin-right="0"
     fit-margin-bottom="0"
     inkscape:window-width="1680"
     inkscape:window-height="1006"
     inkscape:window-x="0"
     inkscape:window-y="0"
     inkscape:window-maximized="0" />
  <metadata
     id="metadata7">
    <rdf:RDF>
      <cc:Work
         rdf:about="">
        <dc:format>image/svg+xml</dc:format>
        <dc:type
           rdf:resource="http://purl.org/dc/dcmitype/StillImage" />
        <dc:title></dc:title>
      </cc:Work>
    </rdf:RDF>
  </metadata>
  <g
     inkscape:groupmode="layer"
     id="layer2"
     inkscape:label="profile"
     transform="translate(-228.37008,-1977.2619)">
    <path
       style="fill:#24c0ab;fill-opacity:1;stroke:none"
       d="m 240.0101,1992.8847 -7.08432,25.0099 c -0.2923,0.7619 -0.44284,1.373 -0.42556,2.7656 l 0,14.9646 c -0.12705,2.1485 0.76951,2.8106 2.59533,2.761 l 56.65542,0 c 1.71148,-0.028 2.30039,-0.8201 2.37445,-2.9267 l 0,-15.5167 c -0.0534,-1.024 -0.004,-1.2039 -0.38654,-2.4297 l -7.21551,-24.3184 c -0.15674,-0.8292 -0.30545,-1.2408 -1.01223,-1.1931 l -12.59009,-0.1095 0.11044,3.8654 8.61427,0 c 0.6206,-0.1008 0.87122,0.4981 0.9087,0.9796 l 3.73679,20.9059 c 0.2907,1.2523 -0.38196,1.1615 -0.78011,1.1963 l -44.67437,0 c -0.86312,-0.08 -0.80627,-0.4988 -0.65814,-1.1714 l 3.7083,-21.0704 c 0.1237,-0.5031 0.42429,-0.6747 0.87207,-0.6192 l 8.39339,0 0,-3.9758 -12.14861,0.095 c -0.45858,-0.035 -0.85106,0.048 -0.99368,0.7872 z"
       id="path3776"
       inkscape:connector-curvature="0"
       sodipodi:nodetypes="ccccccccccccccccccccccccc" />
    <path
       style="fill:#24c0ab;fill-opacity:1;stroke:none"
       d="m 255.6925,1984.2705 0,15.4615 -7.73076,0 15.1302,15.1302 15.24064,-15.2406 -7.62032,0 0,-15.3511 c -5.00658,-1.2364 -10.01318,-1.1186 -15.01976,0 z"
       id="path3778"
       inkscape:connector-curvature="0"
       sodipodi:nodetypes="cccccccc" />
  </g>
</svg>
