<?xml version="1.0" encoding="UTF-8" standalone="no"?>
<!-- Created with Inkscape (http://www.inkscape.org/) -->

<svg
   xmlns:dc="http://purl.org/dc/elements/1.1/"
   xmlns:cc="http://creativecommons.org/ns#"
   xmlns:rdf="http://www.w3.org/1999/02/22-rdf-syntax-ns#"
   xmlns:svg="http://www.w3.org/2000/svg"
   xmlns="http://www.w3.org/2000/svg"
   xmlns:sodipodi="http://sodipodi.sourceforge.net/DTD/sodipodi-0.dtd"
   xmlns:inkscape="http://www.inkscape.org/namespaces/inkscape"
   width="70"
   height="70"
   id="svg2"
   version="1.1"
   inkscape:version="0.48.2 r9819"
   sodipodi:docname="about_collect.svg"
   inkscape:export-filename="/Users/ZERO/Computing/Resource/Music Beam/music_beam.png"
   inkscape:export-xdpi="37.150002"
   inkscape:export-ydpi="37.150002">
  <defs
     id="defs4" />
  <sodipodi:namedview
     id="base"
     pagecolor="#ffffff"
     bordercolor="#6666fd"
     borderopacity="1"
     inkscape:pageopacity="1"
     inkscape:pageshadow="2"
     inkscape:zoom="4"
     inkscape:cx="6.4150215"
     inkscape:cy="31.606223"
     inkscape:document-units="px"
     inkscape:current-layer="layer1"
     showgrid="false"
     fit-margin-top="0"
     fit-margin-left="0"
     fit-margin-right="0"
     fit-margin-bottom="0"
     inkscape:window-width="1680"
     inkscape:window-height="1006"
     inkscape:window-x="0"
     inkscape:window-y="0"
     inkscape:window-maximized="0" />
  <metadata
     id="metadata7">
    <rdf:RDF>
      <cc:Work
         rdf:about="">
        <dc:format>image/svg+xml</dc:format>
        <dc:type
           rdf:resource="http://purl.org/dc/dcmitype/StillImage" />
        <dc:title></dc:title>
      </cc:Work>
    </rdf:RDF>
  </metadata>
  <g
     inkscape:groupmode="layer"
     id="layer2"
     inkscape:label="profile"
     transform="translate(-228.37008,-1977.2619)">
    <g
       transform="matrix(0.40519,0,0,0.40519,89.797479,1778.0171)"
       id="layer1"
       inkscape:label="Layer 1">
      <path
         sodipodi:nodetypes="cc"
         inkscape:connector-curvature="0"
         id="path3772"
         d="m 438.30219,528.09495 c 28.40567,28.40963 29.22613,72.3174 2.98836,104.10132"
         style="fill:none;stroke:#24c0ab;stroke-width:13;stroke-linecap:butt;stroke-linejoin:miter;stroke-miterlimit:4;stroke-opacity:1;stroke-dasharray:none" />
      <path
         style="fill:none;stroke:#24c0ab;stroke-width:12.99884005;stroke-linecap:butt;stroke-linejoin:miter;stroke-miterlimit:4;stroke-opacity:1;stroke-dasharray:none"
         d="m 472.74084,501.41937 c 41.99864,42.00449 43.21171,106.92346 4.41836,153.91695"
         id="path3774"
         inkscape:connector-curvature="0"
         sodipodi:nodetypes="cc" />
      <path
         sodipodi:nodetypes="ccccccccccc"
         inkscape:connector-curvature="0"
         id="path3778-8"
         d="m 399.26279,606.25356 c 13.46525,-16.67231 8.74138,-35.36363 -1.26269,-44.82552 l -8.46002,-13.88959 c -6.40936,5.20049 -13.41783,11.59919 -17.93021,13.00571 -2.82033,1.98183 -15.64009,-0.93653 -18.94036,-0.63134 -3.64776,0.0579 -3.65309,2.49182 -4.54569,3.6618 -2.87703,7.85606 -2.15236,31.39549 -0.63134,40.02729 1.01677,4.50313 3.49506,4.25631 5.80837,4.54569 6.11946,-0.3239 12.68331,-1.88015 15.65737,-1.13642 4.9014,0.73714 10.33096,6.75589 15.53109,10.48033 z"
         style="fill:#24c0ab;fill-opacity:1;stroke:none" />
      <path
         sodipodi:nodetypes="ccccccccc"
         inkscape:connector-curvature="0"
         id="path3780"
         d="m 383.98424,617.23897 14.89975,-11.36421 9.72272,7.95495 c 16.65044,-19.96435 13.12863,-46.3256 -1.89404,-60.86169 l -9.09137,8.83883 -8.71257,-14.01586 c 10.54364,-7.89124 15.50632,-15.54105 26.14059,-18.22581 18.15559,3.08401 19.40678,105.04538 1.75341,108.55125 -11.51399,-1.57951 -19.65287,-10.04884 -32.81849,-20.87746 z"
         style="fill:#24c0ab;fill-opacity:1;stroke:none" />
    </g>
  </g>
</svg>
