<?xml version="1.0" encoding="UTF-8" standalone="no"?>
<!-- Created with Inkscape (http://www.inkscape.org/) -->

<svg
   xmlns:dc="http://purl.org/dc/elements/1.1/"
   xmlns:cc="http://creativecommons.org/ns#"
   xmlns:rdf="http://www.w3.org/1999/02/22-rdf-syntax-ns#"
   xmlns:svg="http://www.w3.org/2000/svg"
   xmlns="http://www.w3.org/2000/svg"
   xmlns:sodipodi="http://sodipodi.sourceforge.net/DTD/sodipodi-0.dtd"
   xmlns:inkscape="http://www.inkscape.org/namespaces/inkscape"
   width="96.85051"
   height="100.19393"
   id="svg2"
   version="1.1"
   inkscape:version="0.48.2 r9819"
   sodipodi:docname="icon_settings.svg"
   inkscape:export-filename="/Users/ZERO/Computing/Resource/Music Beam/music_beam.png"
   inkscape:export-xdpi="37.150002"
   inkscape:export-ydpi="37.150002">
  <defs
     id="defs4" />
  <sodipodi:namedview
     id="base"
     pagecolor="#000000"
     bordercolor="#6666fd"
     borderopacity="1"
     inkscape:pageopacity="0"
     inkscape:pageshadow="2"
     inkscape:zoom="2.8284271"
     inkscape:cx="25.891182"
     inkscape:cy="20.753199"
     inkscape:document-units="px"
     inkscape:current-layer="layer4"
     showgrid="false"
     fit-margin-top="0"
     fit-margin-left="0"
     fit-margin-right="0"
     fit-margin-bottom="0"
     inkscape:window-width="1680"
     inkscape:window-height="1006"
     inkscape:window-x="0"
     inkscape:window-y="0"
     inkscape:window-maximized="0" />
  <metadata
     id="metadata7">
    <rdf:RDF>
      <cc:Work
         rdf:about="">
        <dc:format>image/svg+xml</dc:format>
        <dc:type
           rdf:resource="http://purl.org/dc/dcmitype/StillImage" />
        <dc:title />
      </cc:Work>
    </rdf:RDF>
  </metadata>
  <g
     inkscape:groupmode="layer"
     id="layer4"
     inkscape:label="settings"
     transform="translate(-173.10342,-1.8078087)"
     style="display:inline">
    <path
       sodipodi:type="arc"
       style="fill:none;stroke:#ffffff;stroke-width:22.56984900999999866;stroke-linecap:round;stroke-linejoin:round;stroke-miterlimit:4;stroke-opacity:1;stroke-dasharray:none"
       id="path4049"
       sodipodi:cx="582.47919"
       sodipodi:cy="1864.0031"
       sodipodi:rx="34.471455"
       sodipodi:ry="34.471455"
       d="m 616.95064,1864.0031 c 0,19.038 -15.43339,34.4714 -34.47145,34.4714 -19.03806,0 -34.47146,-15.4334 -34.47146,-34.4714 0,-19.0381 15.4334,-34.4715 34.47146,-34.4715 19.03806,0 34.47145,15.4334 34.47145,34.4715 z"
       transform="matrix(0.86354936,0,0,0.86354936,-281.19983,-1557.5057)" />
    <path
       style="fill:#ffffff;fill-opacity:1;stroke:none"
       d="m 182.30894,57.5549 -9.20552,8.2318 c 2.36966,8.0422 6.19172,15.9935 13.38215,22.2279 l 10.40603,-4.188 C 189.13227,77.08 183.36967,69.5028 182.30894,57.5549 z"
       id="path4051"
       inkscape:connector-curvature="0"
       sodipodi:nodetypes="ccccc" />
    <path
       style="fill:#ffffff;fill-opacity:1;stroke:none"
       d="m 208.48674,90.1111 1.3609,10.6052 c 8.04317,1.652 15.73885,1.8514 23.8157,-0.2268 l 1.65414,-10.6718 c -9.56985,3.5341 -17.97856,3.5301 -26.83074,0.2934 z"
       id="path4053"
       inkscape:connector-curvature="0"
       sodipodi:nodetypes="ccccc" />
    <path
       style="fill:#ffffff;fill-opacity:1;stroke:none"
       d="m 246.87371,83.3066 10.60533,3.3471 c 6.09239,-4.8703 10.38738,-11.5381 12.24807,-20.6402 l -8.14926,-7.336 c -2.41394,10.1342 -5.26919,17.2213 -14.70414,24.6291 z"
       id="path4055"
       inkscape:connector-curvature="0"
       sodipodi:nodetypes="ccccc" />
    <path
       style="fill:#ffffff;fill-opacity:1;stroke:none"
       d="m 247.9964,21.7843 9.93627,-4.5363 c 5.96907,6.6219 10.28148,13.7172 12.02126,21.5475 l -8.56398,7.485 C 260.49212,36.0453 253.13283,25.2148 247.9964,21.7843 z"
       id="path4057"
       inkscape:connector-curvature="0"
       sodipodi:nodetypes="ccccc" />
    <path
       style="fill:#ffffff;fill-opacity:1;stroke:none"
       d="m 208.07202,14.3383 1.77562,-10.4725 c 8.74914,-3.1455 16.72773,-2.4384 24.26933,0.4537 l 1.39981,10.0027 c -8.58983,-2.7867 -17.5762,-3.5908 -27.44476,0.016 z"
       id="path4059"
       inkscape:connector-curvature="0"
       sodipodi:nodetypes="ccccc" />
    <path
       style="fill:#ffffff;fill-opacity:1;stroke:none"
       d="m 182.73504,43.8633 -8.72436,-5.2946 c 1.59976,-8.6209 6.74232,-15.0276 13.15534,-20.6403 l 8.05532,4.3095 c -5.19097,3.9432 -11.10694,11.4554 -12.4863,21.6254 z"
       id="path4061"
       inkscape:connector-curvature="0"
       sodipodi:nodetypes="ccccc" />
  </g>
</svg>
