<?xml version="1.0" encoding="UTF-8" standalone="no"?>
<!-- Created with Inkscape (http://www.inkscape.org/) -->

<svg
   xmlns:dc="http://purl.org/dc/elements/1.1/"
   xmlns:cc="http://creativecommons.org/ns#"
   xmlns:rdf="http://www.w3.org/1999/02/22-rdf-syntax-ns#"
   xmlns:svg="http://www.w3.org/2000/svg"
   xmlns="http://www.w3.org/2000/svg"
   xmlns:sodipodi="http://sodipodi.sourceforge.net/DTD/sodipodi-0.dtd"
   xmlns:inkscape="http://www.inkscape.org/namespaces/inkscape"
   width="75.260788"
   height="99.792137"
   id="svg2"
   version="1.1"
   inkscape:version="0.48.2 r9819"
   sodipodi:docname="icon_profile.svg"
   inkscape:export-filename="/Users/ZERO/Computing/Resource/Music Beam/music_beam.png"
   inkscape:export-xdpi="37.150002"
   inkscape:export-ydpi="37.150002">
  <defs
     id="defs4" />
  <sodipodi:namedview
     id="base"
     pagecolor="#000000"
     bordercolor="#6666fd"
     borderopacity="1"
     inkscape:pageopacity="0"
     inkscape:pageshadow="2"
     inkscape:zoom="2.8284271"
     inkscape:cx="-94.677352"
     inkscape:cy="19.783523"
     inkscape:document-units="px"
     inkscape:current-layer="layer2"
     showgrid="false"
     fit-margin-top="0"
     fit-margin-left="0"
     fit-margin-right="0"
     fit-margin-bottom="0"
     inkscape:window-width="1680"
     inkscape:window-height="1006"
     inkscape:window-x="0"
     inkscape:window-y="0"
     inkscape:window-maximized="0" />
  <metadata
     id="metadata7">
    <rdf:RDF>
      <cc:Work
         rdf:about="">
        <dc:format>image/svg+xml</dc:format>
        <dc:type
           rdf:resource="http://purl.org/dc/dcmitype/StillImage" />
        <dc:title></dc:title>
      </cc:Work>
    </rdf:RDF>
  </metadata>
  <g
     inkscape:groupmode="layer"
     id="layer2"
     inkscape:label="profile"
     transform="translate(-228.37008,-1947.4698)">
    <path
       transform="matrix(0.78761023,0,0,0.78761023,27.85848,451.79794)"
       d="m 334.5,1931 c 0,17.6731 -14.32689,32 -32,32 -17.67311,0 -32,-14.3269 -32,-32 0,-17.6731 14.32689,-32 32,-32 17.67311,0 32,14.3269 32,32 z"
       sodipodi:ry="32"
       sodipodi:rx="32"
       sodipodi:cy="1931"
       sodipodi:cx="302.5"
       id="path3971"
       style="fill:#24c0ab;fill-opacity:1;stroke:none"
       sodipodi:type="arc" />
    <path
       sodipodi:nodetypes="cccccccc"
       inkscape:connector-curvature="0"
       id="path3973"
       d="m 244.78264,1997.1466 c -11.65572,4.2862 -17.03177,26.9351 -16.35601,39.5675 1.09448,4.1001 6.32276,4.3872 5.79306,4.7713 18.20139,8.112 44.9959,7.2808 64.29412,0 3.88447,-0.5569 5.02604,-2.7138 5.11117,-5.487 0.20194,-11.9373 -4.78059,-33.2666 -17.13023,-38.8381 -11.61573,8.791 -30.84015,8.9686 -41.71211,-0.014 z"
       style="fill:#24c0ab;fill-opacity:1;stroke:none" />
  </g>
</svg>
