<?xml version="1.0" encoding="UTF-8" standalone="no"?>
<!-- Created with Inkscape (http://www.inkscape.org/) -->

<svg
   xmlns:dc="http://purl.org/dc/elements/1.1/"
   xmlns:cc="http://creativecommons.org/ns#"
   xmlns:rdf="http://www.w3.org/1999/02/22-rdf-syntax-ns#"
   xmlns:svg="http://www.w3.org/2000/svg"
   xmlns="http://www.w3.org/2000/svg"
   xmlns:sodipodi="http://sodipodi.sourceforge.net/DTD/sodipodi-0.dtd"
   xmlns:inkscape="http://www.inkscape.org/namespaces/inkscape"
   width="130"
   height="130"
   id="svg2"
   version="1.1"
   inkscape:version="0.48.2 r9819"
   sodipodi:docname="settings_cover.svg">
  <defs
     id="defs4" />
  <sodipodi:namedview
     id="base"
     pagecolor="#ffffff"
     bordercolor="#666666"
     borderopacity="1.0"
     inkscape:pageopacity="0.0"
     inkscape:pageshadow="2"
     inkscape:zoom="2.8"
     inkscape:cx="-1.4007577"
     inkscape:cy="53.26857"
     inkscape:document-units="px"
     inkscape:current-layer="layer1"
     showgrid="false"
     inkscape:window-width="1099"
     inkscape:window-height="905"
     inkscape:window-x="224"
     inkscape:window-y="79"
     inkscape:window-maximized="0" />
  <metadata
     id="metadata7">
    <rdf:RDF>
      <cc:Work
         rdf:about="">
        <dc:format>image/svg+xml</dc:format>
        <dc:type
           rdf:resource="http://purl.org/dc/dcmitype/StillImage" />
        <dc:title />
      </cc:Work>
    </rdf:RDF>
  </metadata>
  <g
     inkscape:label="Layer 1"
     inkscape:groupmode="layer"
     id="layer1"
     transform="translate(0,-922.36218)">
    <path
       style="fill:none;stroke:#ffffff;stroke-width:1;stroke-linecap:butt;stroke-linejoin:miter;stroke-miterlimit:4;stroke-opacity:1;stroke-dasharray:none"
       d="M 1.219362,18.082277 1.1147573,110.8071 c -0.6854516,12.55475 1.4924583,18.79725 15.8052987,17.97353 l 95.206874,0 c 17.2221,0.4378 17.16441,-10.72561 16.94173,-19.84218 l 0,-92.371402 C 129.3412,3.3729698 124.62751,0.57303063 113.8099,0.74194432 l -98.805545,0 C 5.8232033,0.74467282 0.32624439,5.3188072 1.219362,18.082277 z"
       id="path3755"
       inkscape:connector-curvature="0"
       transform="translate(0,922.36218)"
       sodipodi:nodetypes="ccccccccc" />
    <path
       style="fill:none;stroke:#ffffff;stroke-width:1;stroke-linecap:round;stroke-linejoin:round;stroke-miterlimit:4;stroke-opacity:1;stroke-dasharray:none"
       d="m 11.750725,1014.532 c 2.899445,-10.7877 16.145823,-44.29322 29.727975,-44.82605 14.546168,-0.0778 25.781285,26.68998 29.795986,26.60437 4.058661,0.17661 8.95159,-13.17192 17.482223,-13.76745 8.755982,-0.23504 18.605731,18.42573 26.249661,31.58423 z"
       id="path3768"
       inkscape:connector-curvature="0"
       sodipodi:nodetypes="cccccc" />
    <path
       sodipodi:type="arc"
       style="fill:none;stroke:#ffffff;stroke-width:0.17393913;stroke-linecap:round;stroke-linejoin:round;stroke-miterlimit:4;stroke-opacity:1;stroke-dasharray:none"
       id="path3770"
       sodipodi:cx="70.710678"
       sodipodi:cy="56.385132"
       sodipodi:rx="2.1465743"
       sodipodi:ry="2.1465743"
       d="m 72.857252,56.385132 c 0,1.18552 -0.961054,2.146574 -2.146574,2.146574 -1.18552,0 -2.146574,-0.961054 -2.146574,-2.146574 0,-1.18552 0.961054,-2.146574 2.146574,-2.146574 1.18552,0 2.146574,0.961054 2.146574,2.146574 z"
       transform="matrix(5.7491378,0,0,5.7491378,-306.15159,632.35611)" />
  </g>
</svg>
