<?xml version="1.0" encoding="UTF-8" standalone="no"?>
<!-- Created with Inkscape (http://www.inkscape.org/) -->

<svg
   xmlns:dc="http://purl.org/dc/elements/1.1/"
   xmlns:cc="http://creativecommons.org/ns#"
   xmlns:rdf="http://www.w3.org/1999/02/22-rdf-syntax-ns#"
   xmlns:svg="http://www.w3.org/2000/svg"
   xmlns="http://www.w3.org/2000/svg"
   xmlns:sodipodi="http://sodipodi.sourceforge.net/DTD/sodipodi-0.dtd"
   xmlns:inkscape="http://www.inkscape.org/namespaces/inkscape"
   width="130"
   height="130"
   id="svg2"
   version="1.1"
   inkscape:version="0.48.2 r9819"
   sodipodi:docname="settings_profile.svg">
  <defs
     id="defs4" />
  <sodipodi:namedview
     id="base"
     pagecolor="#ffffff"
     bordercolor="#666666"
     borderopacity="1.0"
     inkscape:pageopacity="0.0"
     inkscape:pageshadow="2"
     inkscape:zoom="2.8"
     inkscape:cx="-1.7579006"
     inkscape:cy="53.26857"
     inkscape:document-units="px"
     inkscape:current-layer="layer1"
     showgrid="false"
     inkscape:window-width="1099"
     inkscape:window-height="905"
     inkscape:window-x="224"
     inkscape:window-y="79"
     inkscape:window-maximized="0" />
  <metadata
     id="metadata7">
    <rdf:RDF>
      <cc:Work
         rdf:about="">
        <dc:format>image/svg+xml</dc:format>
        <dc:type
           rdf:resource="http://purl.org/dc/dcmitype/StillImage" />
        <dc:title />
      </cc:Work>
    </rdf:RDF>
  </metadata>
  <g
     inkscape:label="Layer 1"
     inkscape:groupmode="layer"
     id="layer1"
     transform="translate(0,-922.36218)">
    <path
       style="fill:none;stroke:#ffffff;stroke-width:1;stroke-linecap:butt;stroke-linejoin:miter;stroke-miterlimit:4;stroke-opacity:1;stroke-dasharray:none"
       d="M 1.219362,18.082277 1.1147573,110.8071 c -0.6854516,12.55475 1.4924583,18.79725 15.8052987,17.97353 l 95.206874,0 c 17.2221,0.4378 17.16441,-10.72561 16.94173,-19.84218 l 0,-92.371402 C 129.3412,3.3729698 124.62751,0.57303063 113.8099,0.74194432 l -98.805545,0 C 5.8232033,0.74467282 0.32624439,5.3188072 1.219362,18.082277 z"
       id="path3755"
       inkscape:connector-curvature="0"
       transform="translate(0,922.36218)"
       sodipodi:nodetypes="ccccccccc" />
    <g
       transform="matrix(0.71369058,0,0,0.71369058,-124.54454,-439.56756)"
       inkscape:label="profile"
       id="layer2"
       style="fill:none;fill-opacity:1;stroke:#ffffff;stroke-opacity:1;stroke-width:1.40116744000000004;stroke-miterlimit:4;stroke-dasharray:none">
      <path
         sodipodi:type="arc"
         style="fill:none;fill-opacity:1;stroke:#ffffff;stroke-opacity:1;stroke-width:1.77901121999999967;stroke-miterlimit:4;stroke-dasharray:none"
         id="path3971"
         sodipodi:cx="302.5"
         sodipodi:cy="1931"
         sodipodi:rx="32"
         sodipodi:ry="32"
         d="m 334.5,1931 c 0,17.6731 -14.32689,32 -32,32 -17.67311,0 -32,-14.3269 -32,-32 0,-17.6731 14.32689,-32 32,-32 17.67311,0 32,14.3269 32,32 z"
         transform="matrix(0.78761023,0,0,0.78761023,27.85848,451.79794)" />
      <path
         style="fill:none;fill-opacity:1;stroke:#ffffff;stroke-opacity:1;stroke-width:1.40116744000000004;stroke-miterlimit:4;stroke-dasharray:none"
         d="m 244.78264,1997.1466 c -11.65572,4.2862 -17.03177,26.9351 -16.35601,39.5675 1.09448,4.1001 6.32276,4.3872 5.79306,4.7713 18.20139,8.112 44.9959,7.2808 64.29412,0 3.88447,-0.5569 5.02604,-2.7138 5.11117,-5.487 0.20194,-11.9373 -4.78059,-33.2666 -17.13023,-38.8381 -11.61573,8.791 -30.84015,8.9686 -41.71211,-0.014 z"
         id="path3973"
         inkscape:connector-curvature="0"
         sodipodi:nodetypes="cccccccc" />
    </g>
  </g>
</svg>
