<?xml version="1.0" encoding="UTF-8" standalone="no"?>
<!-- Created with Inkscape (http://www.inkscape.org/) -->

<svg
   xmlns:dc="http://purl.org/dc/elements/1.1/"
   xmlns:cc="http://creativecommons.org/ns#"
   xmlns:rdf="http://www.w3.org/1999/02/22-rdf-syntax-ns#"
   xmlns:svg="http://www.w3.org/2000/svg"
   xmlns="http://www.w3.org/2000/svg"
   xmlns:sodipodi="http://sodipodi.sourceforge.net/DTD/sodipodi-0.dtd"
   xmlns:inkscape="http://www.inkscape.org/namespaces/inkscape"
   width="16"
   height="16"
   id="svg2"
   version="1.1"
   inkscape:version="0.48.2 r9819"
   sodipodi:docname="New document 1">
  <defs
     id="defs4" />
  <sodipodi:namedview
     id="base"
     pagecolor="#ffffff"
     bordercolor="#666666"
     borderopacity="1.0"
     inkscape:pageopacity="0.0"
     inkscape:pageshadow="2"
     inkscape:zoom="14.436763"
     inkscape:cx="3.1718518"
     inkscape:cy="-2.8393512"
     inkscape:document-units="px"
     inkscape:current-layer="layer1"
     showgrid="false"
     inkscape:window-width="1211"
     inkscape:window-height="1007"
     inkscape:window-x="0"
     inkscape:window-y="0"
     inkscape:window-maximized="0" />
  <metadata
     id="metadata7">
    <rdf:RDF>
      <cc:Work
         rdf:about="">
        <dc:format>image/svg+xml</dc:format>
        <dc:type
           rdf:resource="http://purl.org/dc/dcmitype/StillImage" />
        <dc:title></dc:title>
      </cc:Work>
    </rdf:RDF>
  </metadata>
  <g
     inkscape:label="Layer 1"
     inkscape:groupmode="layer"
     id="layer1"
     transform="translate(0,-1036.3622)">
    <rect
       style="fill:#000000;fill-opacity:1;stroke:none"
       id="rect3901"
       width="16"
       height="16"
       x="0"
       y="1036.3622" />
    <path
       style="fill:#ffffff;fill-opacity:1;stroke:none"
       d="m 12.169813,1042.5219 c 1.307159,-0.1487 2.715866,-0.346 3.000718,-1.367 -0.01263,-0.4312 -0.283742,-1.8243 -3.217436,-1.8672 -1.06993,0.051 -3.2413996,0.26 -4.8011849,1.1503 -1.5161095,0.8654 -2.7608112,2.1813 -2.6339265,2.8175 0.056764,1.0583 1.1621723,1.4967 3.0840694,1.5336 0.9390104,0.044 2.629594,-0.2347 2.733988,0.1667 0.19716,0.6186 -1.24453,1.1917 -2.6006209,1.7671 -1.494801,0.6168 -4.7204255,1.1779 -4.8344912,0.967 0.7446256,-0.3335 0.9613419,-0.4446 0.9002152,-0.5335 -0.2372851,-0.044 -0.4334986,0.1365 -1.1488305,0.2742 -0.7504534,0.1444 -1.321771,0.051 -1.5518151,0.2259 -0.25515429,1.0752 1.954126,1.7774 4.5010758,1.267 2.644701,-0.5365 5.5344497,-1.6653 5.8347307,-3.5343 0.01877,-1.0863 -1.250521,-1.518 -3.1340829,-1.4669 -2.042344,-0.048 -4.0637871,-0.1033 -0.5501293,-2.0172 1.5507304,-0.7414 2.8436182,-1.1597 5.3512772,-1.2837 0.838625,-0.024 1.546209,0.169 0.200047,0.8002 -1.054835,0.434 -2.647774,0.6244 -2.533939,0.9335 0.118071,0.1138 0.762165,0.1399 1.400335,0.1668 z"
       id="path3131"
       inkscape:connector-curvature="0"
       sodipodi:nodetypes="cccsccccccsccccccccc" />
  </g>
</svg>
