<?xml version="1.0" encoding="UTF-8" standalone="no"?>
<!-- Created with Inkscape (http://www.inkscape.org/) -->

<svg
   xmlns:dc="http://purl.org/dc/elements/1.1/"
   xmlns:cc="http://creativecommons.org/ns#"
   xmlns:rdf="http://www.w3.org/1999/02/22-rdf-syntax-ns#"
   xmlns:svg="http://www.w3.org/2000/svg"
   xmlns="http://www.w3.org/2000/svg"
   xmlns:sodipodi="http://sodipodi.sourceforge.net/DTD/sodipodi-0.dtd"
   xmlns:inkscape="http://www.inkscape.org/namespaces/inkscape"
   id="svg3291"
   version="1.1"
   inkscape:version="0.48.2 r9819"
   width="1586.8536"
   height="248.59627"
   sodipodi:docname="Screen Shot 2014-03-13 at 11.52.13 am.png">
  <metadata
     id="metadata3297">
    <rdf:RDF>
      <cc:Work
         rdf:about="">
        <dc:format>image/svg+xml</dc:format>
        <dc:type
           rdf:resource="http://purl.org/dc/dcmitype/StillImage" />
        <dc:title></dc:title>
      </cc:Work>
    </rdf:RDF>
  </metadata>
  <defs
     id="defs3295" />
  <sodipodi:namedview
     pagecolor="#ffffff"
     bordercolor="#666666"
     borderopacity="1"
     objecttolerance="10"
     gridtolerance="10"
     guidetolerance="10"
     inkscape:pageopacity="0"
     inkscape:pageshadow="2"
     inkscape:window-width="1655"
     inkscape:window-height="1011"
     id="namedview3293"
     showgrid="false"
     fit-margin-top="0"
     fit-margin-left="0"
     fit-margin-right="0"
     fit-margin-bottom="0"
     inkscape:zoom="0.38333333"
     inkscape:cx="631.00594"
     inkscape:cy="-200.32538"
     inkscape:window-x="27"
     inkscape:window-y="0"
     inkscape:window-maximized="0"
     inkscape:current-layer="svg3291" />
  <g
     id="g4093"
     style="fill:#ffffff;fill-opacity:1">
    <path
       sodipodi:nodetypes="ccccccccccccccccccccccccccccccccc"
       inkscape:connector-curvature="0"
       id="path3301"
       d="m 71.77305,202.59581 c 6.04823,2.679 154.04964,-33.4839 152.60869,-58.3136 -6.57272,-5.4868 -128.43148,16.6593 -142.17391,-35.2174 -7.53343,-36.757404 55.14803,-77.409204 96.52174,-92.608704 36.11725,-17.11610025 154.88614,-33.7769 172.71419,21.2516 2.58217,9.9494 3.97295,19.3031 -3.14897,24.4005 l 31.30434,-1.3043 24.78261,-32.6087 c 7.96169,-4.7818 35.59337,-8.6232 35.37564,7.444 -4.64462,6.8932 -6.71768,11.2147 -15.81042,22.556 35.75394,0.9998 78.36806,-1.118 79.56522,22.1739 2.17346,13.5054 -83.05789,16.7903 -112.17391,18.2609 -41.6021,31.556004 -91.94433,85.461904 -91.30435,103.043504 21.61265,-3.166 94.12071,-57.3913 130.43478,-86.087 39.75628,-28.156104 62.91771,-27.648404 75.65217,-9.1304 l -33.91304,22.1739 c -4.29679,2.1229 -9.1174,4.7695 -18.26087,11.7391 l -30,36.5218 -46.95652,15.6521 c -27.93028,19.5443 -56.13666,47.0976 -83.47826,49.5652 -29.08102,-0.5108 -35.13171,-34.2606 -26.08696,-56.0869 10.06324,-28.5435 34.62872,-56.196 65.21739,-83.4783 -20.34185,-1.0933 -55.58482,6.1141 -73.6493,-11.580904 -12.02528,-2.0297 -22.91023,-2.8118 -25.48113,-11.8973 -3.00473,-14.9937 77.74513,-25.6964 79.56522,-33.9131 -6.97895,-8.4188 -86.42825,1.9248 -112.17392,14.3478 -13.90887,1.7833 -79.95618,37.5563 -75.65217,48.260904 45.40323,10.7126 112.43147,-6.0827 130.43478,27.3913 19.20886,33.8933 -12.89275,64.9359 -82.17391,93.9131 -47.22391,17.1075 -173.28732027,40.9623 -173.47826027,-18.2609 -1.05471003,-13.6588 22.71775027,-9.8187 39.13043027,-13.0435 19.68134,-1.8153 25.66594,-9.3025 32.99074,-7.062 5.86034,4.3538 4.6034,4.4265 -0.38204,11.8974 z"
       style="fill:#ffffff;fill-opacity:1;stroke:none" />
    <path
       sodipodi:nodetypes="ccccccccccccccccccccccccc"
       inkscape:connector-curvature="0"
       id="path4071"
       d="m 378.72999,179.85171 -1.84462,28.5917 c 7.79021,16.5554 18.5182,29.3337 43.34872,23.9802 72.16959,-21.5341 106.01454,-48.3261 146.64779,-87.6198 l 13.8347,5.5339 c -53.23146,46.0705 -37.17881,67.9906 -25.82476,81.1635 42.84077,12.8215 73.20387,-25.9831 97.76517,-41.5041 l 78.3966,-47.9602 13.8347,-13.8347 31.3587,-26.7471 c -15.7226,-7.634004 -29.6053,-17.475904 -93.1536,32.2809 -37.3205,24.8501 -99.40532,67.5058 -94.07599,56.2611 10.90939,-13.5112 29.48339,-30.5062 67.32889,-56.2611 6.4352,-7.6859 -4.5089,-15.3719 -9.2232,-23.0578 -12.7741,-6.8696 -25.8063,0.8058 -38.7371,2.767 -21.84097,0.7789 -40.20542,-28.802204 -66.40656,-12.9124 -6.88111,8.6704 -5.40618,18.3854 7.3785,29.514 -99.22948,72.0117 -117.18589,67.6759 -137.42466,65.4842 3.07438,-4.9407 6.14876,-10.1587 9.22313,-17.524 14.44958,13.6617 28.89915,-0.3051 43.34872,-7.3784 41.38365,-24.0176 57.70781,-43.7611 42.42641,-64.562 l -27.6694,-0.9223 -9.22313,25.8248 c -2.05504,6.8984 -12.04567,11.1517 -21.21321,15.6793 z"
       style="fill:#ffffff;fill-opacity:1;stroke:none" />
    <path
       sodipodi:nodetypes="ccccccccccccccccccc"
       inkscape:connector-curvature="0"
       id="path4073"
       d="m 652.65699,177.08481 c 1.5124,19.3934 -1.8095,43.621 11.0678,51.6495 41.9546,16.1558 84.0445,-15.8038 99.6098,-25.8248 l 39.6595,-1.8446 c 1.7578,-9.8826 6.6572,-21.8596 23.0578,-41.5041 l 8.3008,16.6016 19.3686,-25.8247 c 0.3759,-4.3041 2.1067,-8.6083 7.3785,-12.9124 l 9.2231,-36.8925 c -13.9465,-8.692004 -39.2511,5.332 -72.8627,35.9702 -16.5743,39.5748 -94.5583,67.0411 -108.833,59.9503 0.8817,-6.1487 2.5537,-12.2975 8.3009,-18.4462 18.4117,18.2063 84.5396,-24.0135 89.4643,-51.6496 3.278,-8.3008 2.7454,-16.6016 -11.0677,-24.9024 l -32.281,11.0677 1.8446,19.3686 c -3.9503,3.0744 -6.7219,6.1487 -12.9123,9.2231 l -20.2909,-9.2231 z"
       style="fill:#ffffff;fill-opacity:1;stroke:none" />
    <path
       sodipodi:nodetypes="ccccccccccccccccccccccccccccccccccc"
       inkscape:connector-curvature="0"
       id="path4075"
       d="m 761.48999,193.68641 c 6.2365,13.3956 -2.8086,31.885 23.0578,38.7372 42.4195,9.3132 66.5656,-32.6005 80.2413,-43.3488 12.8227,0.5252 21.5558,-3.0392 29.514,-7.3785 -4.063,17.9228 -10.6428,35.4262 13.8347,58.1058 30.4036,4.4644 54.3962,-19.921 80.2412,-35.9703 l 39.65951,-1.8446 22.1355,-41.5041 10.1455,14.757 17.5239,-25.8247 8.3008,-11.0678 8.3008,-36.8925 c -16.3721,-12.940004 -46.43,12.9572 -78.3966,44.271 l -89.46441,55.3388 90.38671,-103.299104 c 39.423,-5.1909 101.1414,0.7658 114.3669,-17.5239 -6.6232,-25.7009 -47.4264,-20.3291 -79.319,-23.0579 5.1363,-8.0234 14.4094,-14.6679 12.9124,-24.9024 -9.9052,-12.5095 -22.8301,-6.9004 -35.0479,-5.5339 l -23.9801,34.1256 c -29.51401,-1.8446 -124.74921,6.93 -130.04621,16.6017 -4.6534,7.2874 5.6037,15.2671 13.8347,14.7569 4.0547,12.466804 40.4533,10.231804 70.0958,11.067804 l -29.514,28.5917 -45.1934,27.6694 c 6.7203,-20.8787 17.537,-44.3176 5.5339,-53.4942 -3.4872,-11.673804 -12.032,-8.175004 -20.2909,-5.5338 l -14.757,28.5917 4.6116,10.1454 -6.4562,10.1455 -8.3008,-1.8447 -12.9124,23.0579 0.9223,6.4562 c -4.3899,8.3008 -16.275,16.6016 -30.4363,24.9024 z"
       style="fill:#ffffff;fill-opacity:1;stroke:none" />
    <path
       sodipodi:nodetypes="ccccccccccccccccccccccccccccccccccc"
       inkscape:connector-curvature="0"
       id="path4077"
       d="m 988.37899,196.45331 c -1.9096,15.8493 -1.2972,31.0681 25.82481,39.6595 45.5132,-2.6579 56.4546,-28.5876 74.7074,-47.038 13.4513,2.995 30.54,-4.9224 48.8826,-16.6016 -23.7971,23.055 -38.4973,30.0008 -26.7471,49.8049 17.3658,17.1049 59.2169,-28.9292 71.9404,-35.9702 -5.1125,19.5302 -11.4086,39.2972 19.3686,51.6495 29.1211,3.3047 52.0248,-21.3692 76.552,-38.7371 -1.8312,20.2774 8.4393,28.4532 21.2132,34.1256 33.8835,4.3834 56.5191,-15.9739 79.3189,-35.9702 5.614,92.6487 139.1479,-3.8344 204.7535,-64.5619 7.4822,-12.1044 -2.6086,-30.0179 -8.3008,-22.1356 -52.5405,44.3507 -126.9299,92.1186 -155.8709,85.7752 4.1449,-31.6082 41.5055,-60.5123 66.4065,-70.0959 -8.9154,9.7033 -31.6945,14.9808 -23.0578,26.7471 -0.3585,7.8834 19.1272,9.6213 43.3487,-1.8446 11.8433,-11.4285 30.4685,-18.6183 23.9802,-41.5041 -13.7064,-29.044604 -71.737,-5.1937 -102.3768,14.757 l -23.0578,20.2909 c -29.0384,17.1179 -68.4994,46.1804 -86.6975,50.7272 2.4191,-16.3077 30.5589,-52.3261 54.4165,-75.6297 0.5461,-16.487 -23.7827,-18.2629 -36.8925,-11.0677 -5.7241,3.4548 -15.4907,14.9946 -28.5917,33.2033 -29.2066,18.7537 -61.0404,50.6432 -87.6198,56.2611 6.4562,-32.281 54.362,-63.339 55.3388,-77.4743 -0.035,-16.7109 -25.1825,-18.2048 -30.4363,-11.9901 l -47.038,32.2809 c 10.2458,-10.8272 13.5883,-17.0522 16.6017,-23.0578 -0.997,-14.26 -12.9214,-15.7713 -28.5918,-12.9124 -18.7299,21.3788 -43.9918,39.4916 -77.4743,53.4942 20.1584,-28.1282 21.4938,-72.347504 -14.757,-58.1057 l -19.3685,20.2909 -13.8347,53.4941 c -7.4624,11.1795 -16.9076,21.3677 -34.1256,27.6694 z"
       style="fill:#ffffff;fill-opacity:1;stroke:none" />
    <path
       sodipodi:nodetypes="ccc"
       inkscape:connector-curvature="0"
       id="path4079"
       d="m 1364.6828,92.231906 c -18.0947,-15.3928 19.3253,-54.9745 38.7372,-43.3487 30.269,15.3075 -17.6553,61.273904 -38.7372,43.3487 z"
       style="fill:#ffffff;fill-opacity:1;stroke:none" />
  </g>
</svg>
