<?xml version="1.0" encoding="UTF-8" standalone="no"?>
<!-- Created with Inkscape (http://www.inkscape.org/) -->

<svg
   xmlns:dc="http://purl.org/dc/elements/1.1/"
   xmlns:cc="http://creativecommons.org/ns#"
   xmlns:rdf="http://www.w3.org/1999/02/22-rdf-syntax-ns#"
   xmlns:svg="http://www.w3.org/2000/svg"
   xmlns="http://www.w3.org/2000/svg"
   xmlns:sodipodi="http://sodipodi.sourceforge.net/DTD/sodipodi-0.dtd"
   xmlns:inkscape="http://www.inkscape.org/namespaces/inkscape"
   width="165.53333"
   height="162.65625"
   id="svg2"
   version="1.1"
   inkscape:version="0.48.2 r9819"
   sodipodi:docname="New document 1">
  <defs
     id="defs4" />
  <sodipodi:namedview
     id="base"
     pagecolor="#ffffff"
     bordercolor="#666666"
     borderopacity="1.0"
     inkscape:pageopacity="0.0"
     inkscape:pageshadow="2"
     inkscape:zoom="2.8"
     inkscape:cx="99.296343"
     inkscape:cy="77.532395"
     inkscape:document-units="px"
     inkscape:current-layer="layer1"
     showgrid="false"
     fit-margin-top="0"
     fit-margin-left="0"
     fit-margin-right="0"
     fit-margin-bottom="0"
     inkscape:window-width="1113"
     inkscape:window-height="894"
     inkscape:window-x="0"
     inkscape:window-y="0"
     inkscape:window-maximized="0" />
  <metadata
     id="metadata7">
    <rdf:RDF>
      <cc:Work
         rdf:about="">
        <dc:format>image/svg+xml</dc:format>
        <dc:type
           rdf:resource="http://purl.org/dc/dcmitype/StillImage" />
        <dc:title></dc:title>
      </cc:Work>
    </rdf:RDF>
  </metadata>
  <g
     inkscape:label="Layer 1"
     inkscape:groupmode="layer"
     id="layer1"
     transform="translate(-346.1587,-496.8125)">
    <path
       style="fill:none;stroke:#ffffff;stroke-width:13;stroke-linecap:butt;stroke-linejoin:miter;stroke-miterlimit:4;stroke-opacity:1;stroke-dasharray:none"
       d="m 438.30219,528.09495 c 28.40567,28.40963 29.22613,72.3174 2.98836,104.10132"
       id="path3772"
       inkscape:connector-curvature="0"
       sodipodi:nodetypes="cc" />
    <path
       sodipodi:nodetypes="cc"
       inkscape:connector-curvature="0"
       id="path3774"
       d="m 472.74084,501.41937 c 41.99864,42.00449 43.21171,106.92346 4.41836,153.91695"
       style="fill:none;stroke:#ffffff;stroke-width:13;stroke-linecap:butt;stroke-linejoin:miter;stroke-miterlimit:4;stroke-opacity:1;stroke-dasharray:none" />
    <path
       style="fill:#ffffff;fill-opacity:1;stroke:none"
       d="m 399.26279,606.25356 c 13.46525,-16.67231 8.74138,-35.36363 -1.26269,-44.82552 l -8.46002,-13.88959 c -6.40936,5.20049 -13.41783,11.59919 -17.93021,13.00571 -2.82033,1.98183 -15.64009,-0.93653 -18.94036,-0.63134 -3.64776,0.0579 -3.65309,2.49182 -4.54569,3.6618 -2.87703,7.85606 -2.15236,31.39549 -0.63134,40.02729 1.01677,4.50313 3.49506,4.25631 5.80837,4.54569 6.11946,-0.3239 12.68331,-1.88015 15.65737,-1.13642 4.9014,0.73714 10.33096,6.75589 15.53109,10.48033 z"
       id="path3778"
       inkscape:connector-curvature="0"
       sodipodi:nodetypes="ccccccccccc" />
    <path
       style="fill:#ffffff;fill-opacity:1;stroke:none"
       d="m 383.98424,617.23897 14.89975,-11.36421 9.72272,7.95495 c 16.65044,-19.96435 13.12863,-46.3256 -1.89404,-60.86169 l -9.09137,8.83883 -8.71257,-14.01586 c 10.54364,-7.89124 21.05927,-17.39203 31.69354,-20.07679 10.76816,-1.85194 11.36937,111.83231 1.13642,112.25321 -11.51399,-1.57951 -24.58883,-11.89982 -37.75445,-22.72844 z"
       id="path3780"
       inkscape:connector-curvature="0"
       sodipodi:nodetypes="ccccccccc" />
  </g>
</svg>
